# xmcd
#
# Track frame offsets: 
#        150
#        20455
#        37542
#        50740
#        67877
#        81210
#        94340
#        109730
#        122720
#        140012
#        151750
#        168290
#
# Disc length: 2528 seconds
#
# Revision: 1
# Processed by: cddbd v1.5.2PL0 Copyright (c) Steve Scherf et al.
# Submitted via: ExactAudioCopy v0.95b3
#
DISCID=9209de0c
DTITLE=Gabriella Ferri - I Grandi Successi Originali
DYEAR=2000
DGENRE=Folklore
TTITLE0=Dove sta Zazà
TTITLE1=Reginella
TTITLE2=Tammuriata Nera
TTITLE3=Gita a li Castelli
TTITLE4=La Pansé
TTITLE5=Il Valzer della Toppa
TTITLE6=Roma Forastiera
TTITLE7=Sempre
TTITLE8=Sette par de' Scarpe - Tutti al Mare
TTITLE9=Remedios
TTITLE10=Semo in Centoventitré
TTITLE11=Malafemmena
EXTD=
EXTT0=
EXTT1=
EXTT2=
EXTT3=
EXTT4=
EXTT5=
EXTT6=
EXTT7=
EXTT8=
EXTT9=
EXTT10=
EXTT11=
PLAYORDER=
